# Blender v3.5.0 OBJ File: 'player.blend'
# www.blender.org
mtllib player.mtl
o 身体_立方体
v 0.615601 0.855592 -0.710537
v 0.880512 3.103743 -0.926109
v 0.615601 0.855592 0.710537
v 0.880512 3.103743 0.926109
v -0.615601 0.855592 -0.710537
v -0.880512 3.103743 -0.926109
v -0.615601 0.855592 0.710537
v -0.880512 3.103743 0.926109
vt 0.227894 0.029262
vt 0.351696 0.200622
vt 0.244201 0.200622
vt 0.169370 0.429984
vt 0.050338 0.259145
vt 0.148294 0.259145
vt 0.029262 0.029262
vt 0.153064 0.200622
vt 0.045568 0.200622
vt 0.368003 0.429984
vt 0.248971 0.259145
vt 0.346926 0.259145
vt 0.921746 0.251502
vt 0.823791 0.358997
vt 0.823791 0.251502
vt 0.566635 0.625159
vt 0.426526 0.765267
vt 0.426526 0.625159
vt 0.368003 0.029262
vt 0.029262 0.429984
vt 0.169370 0.029262
vt 0.227894 0.429984
vt 0.921746 0.358997
vt 0.566635 0.765267
vn 0.9931 -0.1170 0.0000
vn 0.0000 -0.0955 0.9954
vn -0.9931 -0.1170 0.0000
vn 0.0000 -0.0955 -0.9954
vn 0.0000 -1.0000 0.0000
vn 0.0000 1.0000 0.0000
usemtl マテリアル.003
s off
f 2/1/1 3/2/1 1/3/1
f 4/4/2 7/5/2 3/6/2
f 8/7/3 5/8/3 7/9/3
f 6/10/4 1/11/4 5/12/4
f 7/13/5 1/14/5 3/15/5
f 4/16/6 6/17/6 8/18/6
f 2/1/1 4/19/1 3/2/1
f 4/4/2 8/20/2 7/5/2
f 8/7/3 6/21/3 5/8/3
f 6/10/4 2/22/4 1/11/4
f 7/13/5 5/23/5 1/14/5
f 4/16/6 2/24/6 6/17/6
o 左腕_立方体.001
v -0.944651 -1.949063 -0.711820
v -0.161863 -0.400023 -0.404608
v -0.944651 -1.949063 0.711820
v -0.161863 -0.400023 0.404608
v -1.995843 -1.035972 -0.711820
v -0.155536 0.434818 -0.404608
v -1.995843 -1.035972 0.711820
v -0.155536 0.434818 0.404608
vt 0.346481 0.606887
vt 0.268271 0.488507
vt 0.368003 0.488507
vt 0.297829 0.766282
vt 0.365693 0.886070
vt 0.268271 0.886070
vt 0.107472 0.852176
vt 0.029262 0.687140
vt 0.128994 0.687140
vt 0.783414 0.812482
vt 0.851279 0.692695
vt 0.880836 0.812482
vt 0.783414 0.970738
vt 0.880957 0.871006
vt 0.880957 0.970738
vt 0.289792 0.606887
vt 0.346481 0.663830
vt 0.289792 0.663830
vt 0.336135 0.722354
vt 0.050783 0.852176
vt 0.812972 0.648766
vt 0.783414 0.871006
vn 0.8925 -0.4510 0.0000
vn 0.1178 0.1356 0.9837
vn -0.6243 0.7812 0.0000
vn 0.1178 0.1356 -0.9837
vn -0.6558 -0.7550 0.0000
vn 1.0000 -0.0076 0.0000
vn 0.1656 -0.0013 0.9862
vn 0.1656 -0.0013 -0.9862
usemtl マテリアル.004
s off
f 10/25/7 11/26/7 9/27/7
f 12/28/8 15/29/8 11/30/8
f 16/31/9 13/32/9 15/33/9
f 13/34/10 10/35/10 9/36/10
f 15/37/11 9/38/11 11/39/11
f 12/40/12 14/41/12 16/42/12
f 10/25/7 12/40/7 11/26/7
f 12/28/13 16/43/13 15/29/13
f 16/31/9 14/44/9 13/32/9
f 13/34/14 14/45/14 10/35/14
f 15/37/11 13/46/11 9/38/11
f 12/40/12 10/25/12 14/41/12
o 右腕_立方体.003
v 0.944651 -1.949063 0.711820
v 0.161863 -0.400023 0.404608
v 0.944651 -1.949063 -0.711820
v 0.161863 -0.400023 -0.404608
v 1.995843 -1.035972 0.711820
v 0.155536 0.434818 0.404608
v 1.995843 -1.035972 -0.711820
v 0.155536 0.434818 -0.404608
vt 0.703369 0.544906
vt 0.625159 0.426526
vt 0.724891 0.426526
vt 0.812972 0.470455
vt 0.880836 0.590243
vt 0.783414 0.590243
vt 0.703369 0.825409
vt 0.625159 0.660373
vt 0.724891 0.660373
vt 0.823791 0.192978
vt 0.891655 0.073190
vt 0.921213 0.192978
vt 0.426526 0.923523
vt 0.524069 0.823791
vt 0.524069 0.923523
vt 0.646680 0.544906
vt 0.703369 0.601849
vt 0.646680 0.601849
vt 0.851279 0.426526
vt 0.646680 0.825409
vt 0.853349 0.029262
vt 0.426526 0.823791
vn -0.8925 -0.4510 0.0000
vn -0.1178 0.1356 -0.9837
vn 0.6243 0.7812 0.0000
vn -0.1178 0.1356 0.9837
vn 0.6558 -0.7550 -0.0000
vn -1.0000 -0.0076 0.0000
vn -0.1656 -0.0013 -0.9862
vn -0.1656 -0.0013 0.9862
usemtl マテリアル.001
s off
f 18/47/15 19/48/15 17/49/15
f 20/50/16 23/51/16 19/52/16
f 24/53/17 21/54/17 23/55/17
f 21/56/18 18/57/18 17/58/18
f 23/59/19 17/60/19 19/61/19
f 20/62/20 22/63/20 24/64/20
f 18/47/15 20/62/15 19/48/15
f 20/50/21 24/65/21 23/51/21
f 24/53/17 22/66/17 21/54/17
f 21/56/22 22/67/22 18/57/22
f 23/59/19 21/68/19 17/60/19
f 20/62/20 18/47/20 22/63/20
o 顔_立方体.004
v 1.033036 0.395931 -0.999998
v 1.033036 2.395931 -0.999998
v 1.033036 0.395931 1.000002
v 1.033036 2.395931 1.000002
v -0.966964 0.395931 -0.999998
v -0.966964 2.395931 -0.999998
v -0.966964 0.395931 1.000002
v -0.966964 2.395931 1.000002
vt 0.765267 0.368003
vt 0.625159 0.227894
vt 0.765267 0.227894
vt 0.169370 0.628616
vt 0.029262 0.488507
vt 0.169371 0.488507
vt 0.765267 0.169371
vt 0.625159 0.029262
vt 0.765267 0.029262
vt 0.566635 0.368003
vt 0.426526 0.227894
vt 0.566635 0.227894
vt 0.566635 0.426526
vt 0.426526 0.566635
vt 0.426526 0.426526
vt 0.566635 0.029262
vt 0.426526 0.169370
vt 0.426526 0.029262
vt 0.625159 0.368003
vt 0.029262 0.628616
vt 0.625159 0.169370
vt 0.426526 0.368003
vt 0.566635 0.566635
vt 0.566635 0.169371
vn 1.0000 0.0000 0.0000
vn 0.0000 0.0000 1.0000
vn -1.0000 0.0000 0.0000
vn 0.0000 0.0000 -1.0000
vn 0.0000 -1.0000 0.0000
vn 0.0000 1.0000 0.0000
usemtl マテリアル
s off
f 26/69/23 27/70/23 25/71/23
f 28/72/24 31/73/24 27/74/24
f 32/75/25 29/76/25 31/77/25
f 30/78/26 25/79/26 29/80/26
f 31/81/27 25/82/27 27/83/27
f 28/84/28 30/85/28 32/86/28
f 26/69/23 28/87/23 27/70/23
f 28/72/24 32/88/24 31/73/24
f 32/75/25 30/89/25 29/76/25
f 30/78/26 26/90/26 25/79/26
f 31/81/27 29/91/27 25/82/27
f 28/84/28 26/92/28 30/85/28
